<svg version="1.1" id="Layer_1" xmlns="http://www.w3.org/2000/svg" xmlns:xlink="http://www.w3.org/1999/xlink" x="0px" y="0px"
	 viewBox="0 0 95.4 40.4" style="enable-background:new 0 0 95.4 40.4;" xml:space="preserve">
<style type="text/css">
	.st0{fill:#F0C52E;stroke:#000000;stroke-miterlimit:10;}
</style>
<path id="logo_site" d="M5.2,0.4v17.5h7c2.3,0.1,4.5-0.8,6.1-2.5c3.3-3.5,3.3-9,0-12.5c-1.6-1.7-3.8-2.6-6.1-2.5L5.2,0.4L5.2,0.4z
	 M9.2,14V4.2h3c1.3,0,2.5,0.5,3.4,1.4c1.7,2.1,1.7,5,0,7.1c-0.9,0.9-2.1,1.4-3.4,1.4H9.2L9.2,14z M27.3,10.9h6.3V7.1h-6.3V4.2h6.9
	V0.4H23.3v17.5h11.1V14h-7.1V10.9L27.3,10.9z M46.3,17.9L52,0.4h-4.4l-3.9,12.9L39.8,0.4h-4.4l5.7,17.5H46.3L46.3,17.9z M53.8,17.9
	h4V0.4h-4V17.9z M73.9,17.1c1.3-0.7,2.4-1.7,3.1-3l-3.5-2c-0.4,0.7-0.9,1.2-1.7,1.6c-0.7,0.4-1.6,0.6-2.4,0.6
	c-1.4,0.1-2.8-0.5-3.7-1.4c-1.9-2.2-1.9-5.4,0-7.5c1-1,2.3-1.5,3.7-1.4c0.8,0,1.7,0.2,2.4,0.6c0.7,0.4,1.3,0.9,1.7,1.6l3.5-2
	c-0.8-1.2-1.9-2.3-3.2-3C72.4,0.4,70.9,0,69.4,0c-5-0.1-9.2,3.9-9.3,8.9s3.9,9.2,8.9,9.3c0.1,0,0.2,0,0.3,0
	C71,18.2,72.5,17.8,73.9,17.1L73.9,17.1z M83.2,10.9h6.3V7.1h-6.3V4.2h6.9V0.4H79.2v17.5h11.1V14h-7L83.2,10.9L83.2,10.9z"/>
<polyline class="st0" points="47.7,29.6 0,21.7 47.7,26.3 95.4,21.7 47.7,29.6 47.7,37 "/>
<polygon class="st0" points="47.7,37.9 49.2,32.7 46.2,32.7 "/>
</svg>
